<svg width="816" height="320" xmlns="http://www.w3.org/2000/svg" xmlns:xlink="http://www.w3.org/1999/xlink" xml:space="preserve" overflow="hidden"><g transform="translate(-232 -200)"><g><path d="M270.404 45.7143 1084.2 45.7143 1084.2 361.833 270.404 361.833Z" fill="#FFFFFF" fill-rule="nonzero" fill-opacity="1" transform="matrix(1.00111 0 0 1 -38.273 155.148)"/><path d="M431.914 85.2908C434.394 85.8902 436.873 86.4901 437.977 85.8902 439.086 85.2908 438.219 81.6431 438.555 81.6932 438.892 81.7428 439.616 88.7383 440 86.19 440.384 83.6416 440.72 65.2533 440.867 66.4026 441.009 67.5519 440.625 92.7362 440.867 93.0859 441.108 93.4357 442.07 65.9528 442.312 68.5011 442.553 71.0495 442.07 109.575 442.312 108.376 442.553 107.177 443.42 61.2559 443.756 61.3059 444.093 61.3559 444.045 108.376 444.334 108.676 444.623 108.976 445.249 64.7534 445.486 63.1047 445.727 61.4555 445.537 96.9833 445.775 98.7821 446.016 100.581 446.642 73.898 446.93 73.898 447.219 73.898 447.319 100.431 447.508 98.7821 447.702 97.1334 447.845 63.7042 448.086 64.0039 448.328 64.304 448.664 99.1819 448.953 100.581 449.242 101.98 449.578 71.6994 449.82 72.3989 450.061 73.0984 450.156 104.628 450.398 104.778 450.639 104.929 451.023 73.3481 451.265 73.2981 451.506 73.2481 451.554 108.576 451.843 104.479 452.132 100.381 452.658 44.816 452.998 48.7137 453.335 52.6111 453.572 127.065 453.861 127.864 454.15 128.663 454.439 57.8079 454.728 53.5107 455.017 49.2132 455.211 98.9822 455.595 102.08 455.983 105.178 456.608 73.9976 457.039 72.0988 457.475 70.2003 457.57 89.0385 458.195 90.6872 458.82 92.3364 460.265 82.0429 460.796 81.9929 461.322 81.9429 460.985 90.5376 461.374 90.3875 461.757 90.2374 462.478 81.2929 463.103 81.0933 463.728 80.8936 464.548 88.7884 465.126 89.1881 465.703 89.5879 465.992 83.8417 466.57 83.492 467.148 83.1422 467.968 87.0896 468.593 87.0896 469.218 87.0896 469.844 83.492 470.327 83.492 470.805 83.492 470.952 87.1396 471.478 87.0896 472.009 87.0396 473.022 83.1422 473.501 83.1918 473.984 83.2418 473.984 87.1897 474.368 87.3893 474.751 87.5894 475.454 84.38 475.812 84.3912 476.17 84.4024 476.278 87.4083 476.515 87.4562 476.748 87.504 476.96 84.8091 477.227 84.6788 477.494 84.5481 477.585 86.4755 478.12 86.673 478.65 86.8709 480.069 85.8501 480.418 85.8652 480.768 85.8808 480.177 86.8778 480.211 86.7649 480.246 86.6519 480.595 85.2019 480.625 85.1864 480.656 85.1713 480.237 86.6234 480.397 86.673 480.556 86.723 481.294 85.4581 481.574 85.4866 481.859 85.515 481.591 86.8895 482.087 86.8438 482.588 86.7981 479.651 85.4723 484.563 85.2114 489.479 84.9505 509.175 85.2558 511.582 85.2783 513.992 85.3003 512.699 84.6572 512.862 84.8742 513.031 85.0915 512.479 86.6622 512.582 86.5816 512.686 86.5009 513.164 84.5063 513.484 84.3912 513.807 84.276 514.1 85.9403 514.51 85.8902 514.924 85.8402 515.523 83.6916 515.955 84.0914 516.39 84.4912 516.822 88.6887 517.111 88.2889 517.399 87.8892 517.447 81.443 517.688 81.6932 517.93 81.9429 518.219 89.738 518.555 89.788 518.892 89.8376 519.47 81.5931 519.711 81.9929 519.953 82.3927 519.806 92.6361 520 92.1863 520.19 91.7365 520.625 79.1944 520.867 79.2944 521.104 79.3945 521.346 93.3857 521.445 92.7862 521.54 92.1863 521.346 75.4967 521.445 75.6968 521.54 75.8965 521.734 93.5353 522.023 93.9851 522.312 94.4349 522.799 76.3463 523.174 78.3948 523.554 80.4438 524.032 111.674 524.274 106.278 524.515 100.881 524.416 43.4169 524.619 46.0153 524.822 48.6137 525.244 119.219 525.486 121.868 525.727 124.516 525.775 66.8024 526.064 61.9053 526.353 57.0083 526.883 90.0878 527.219 92.486 527.556 94.8848 527.75 76.4964 528.086 76.2963 528.423 76.0966 528.906 90.4375 529.242 91.2871 529.578 92.1363 529.768 82.1926 530.109 81.393 530.445 80.5939 530.877 86.24 531.26 86.4901 531.648 86.7398 532.127 82.5923 532.416 82.8921 532.705 83.1918 532.753 89.3882 532.994 88.2889 533.236 87.1897 533.525 76.0466 533.861 76.2963 534.197 76.546 534.534 88.6887 535.017 89.788 535.5 90.8873 536.172 83.4419 536.75 82.8921 537.328 82.3426 537.954 86.19 538.484 86.4901 539.01 86.7899 539.588 84.6409 539.924 84.6909 540.265 84.7409 540.265 87.1396 540.502 86.7899 540.744 86.4401 540.843 82.4923 541.369 82.5923 541.9 82.6924 543.103 87.2397 543.681 87.3893 544.259 87.5394 544.306 83.5916 544.837 83.492 545.367 83.3919 546.281 86.5898 546.859 86.7899 547.437 86.9895 547.532 84.9911 548.3 84.6909 549.072 84.3912 550.37 84.9911 551.478 84.9911L555.256 84.4132" stroke="#215F9A" stroke-width="1.2938" stroke-linecap="butt" stroke-linejoin="miter" stroke-miterlimit="8" stroke-opacity="1" fill="none" fill-rule="evenodd" transform="matrix(1.00111 0 0 1 -38.273 155.148)"/><text fill="#000000" fill-opacity="1" font-family="Times New Roman,Times New Roman_MSFontService,sans-serif" font-style="normal" font-variant="normal" font-weight="700" font-stretch="normal" font-size="28" text-anchor="start" direction="ltr" writing-mode="lr-tb" unicode-bidi="normal" text-decoration="none" transform="matrix(0.431746 0 0 0.431267 404.534 293)">Heart Sound Signal</text><path d="M492.075 142.749 492.075 153.184 489.488 153.184 489.488 142.749ZM494.663 151.89 490.782 159.653 486.9 151.89Z" fill="#000000" fill-rule="nonzero" fill-opacity="1" transform="matrix(1.00111 0 0 1 -38.273 155.148)"/><path d="M346.739 184.798C346.739 175.866 353.979 168.625 362.911 168.625L469.865 168.625C478.797 168.625 486.038 175.866 486.038 184.798L486.038 249.487C486.038 258.419 478.797 265.66 469.865 265.66L362.911 265.66C353.979 265.66 346.739 258.419 346.739 249.487Z" fill="#F2CFEE" fill-rule="evenodd" fill-opacity="1" transform="matrix(1.00111 0 0 1 -38.273 155.148)"/><path d="M368.949 194.501C368.949 189.38 373.004 185.229 378.005 185.229 383.007 185.229 387.062 189.38 387.062 194.501 387.062 199.622 383.007 203.774 378.005 203.774 373.004 203.774 368.949 199.622 368.949 194.501Z" stroke="#042433" stroke-width="1.2938" stroke-linecap="butt" stroke-linejoin="miter" stroke-miterlimit="8" stroke-opacity="1" fill="#FFFFFF" fill-rule="evenodd" fill-opacity="1" transform="matrix(1.00111 0 0 1 -38.273 155.148)"/><path d="M368.086 222.102C368.086 216.982 372.238 212.83 377.358 212.83 382.479 212.83 386.631 216.982 386.631 222.102 386.631 227.223 382.479 231.375 377.358 231.375 372.238 231.375 368.086 227.223 368.086 222.102Z" stroke="#042433" stroke-width="1.2938" stroke-linecap="butt" stroke-linejoin="miter" stroke-miterlimit="8" stroke-opacity="1" fill="#FFFFFF" fill-rule="evenodd" fill-opacity="1" transform="matrix(1.00111 0 0 1 -38.273 155.148)"/><path d="M404.744 180.485C404.744 175.483 408.895 171.429 414.016 171.429 419.137 171.429 423.288 175.483 423.288 180.485 423.288 185.487 419.137 189.542 414.016 189.542 408.895 189.542 404.744 185.487 404.744 180.485Z" stroke="#042433" stroke-width="1.2938" stroke-linecap="butt" stroke-linejoin="miter" stroke-miterlimit="8" stroke-opacity="1" fill="#FFFFFF" fill-rule="evenodd" fill-opacity="1" transform="matrix(1.00111 0 0 1 -38.273 155.148)"/><path d="M404.744 236.334C404.744 231.213 408.895 227.062 414.016 227.062 419.137 227.062 423.288 231.213 423.288 236.334 423.288 241.455 419.137 245.606 414.016 245.606 408.895 245.606 404.744 241.455 404.744 236.334Z" stroke="#042433" stroke-width="1.2938" stroke-linecap="butt" stroke-linejoin="miter" stroke-miterlimit="8" stroke-opacity="1" fill="#FFFFFF" fill-rule="evenodd" fill-opacity="1" transform="matrix(1.00111 0 0 1 -38.273 155.148)"/><path d="M404.744 208.302C404.744 203.181 408.895 199.03 414.016 199.03 419.137 199.03 423.288 203.181 423.288 208.302 423.288 213.423 419.137 217.574 414.016 217.574 408.895 217.574 404.744 213.423 404.744 208.302Z" stroke="#042433" stroke-width="1.2938" stroke-linecap="butt" stroke-linejoin="miter" stroke-miterlimit="8" stroke-opacity="1" fill="#FFFFFF" fill-rule="evenodd" fill-opacity="1" transform="matrix(1.00111 0 0 1 -38.273 155.148)"/><path d="M440.97 194.501C440.97 189.38 445.024 185.229 450.027 185.229 455.03 185.229 459.084 189.38 459.084 194.501 459.084 199.622 455.03 203.774 450.027 203.774 445.024 203.774 440.97 199.622 440.97 194.501Z" stroke="#042433" stroke-width="1.2938" stroke-linecap="butt" stroke-linejoin="miter" stroke-miterlimit="8" stroke-opacity="1" fill="#FFFFFF" fill-rule="evenodd" fill-opacity="1" transform="matrix(1.00111 0 0 1 -38.273 155.148)"/><path d="M387.062 194.286 404.781 208.107" stroke="#000000" stroke-width="1.2938" stroke-linecap="butt" stroke-linejoin="miter" stroke-miterlimit="8" stroke-opacity="1" fill="none" fill-rule="evenodd" transform="matrix(1.00111 0 0 1 -38.273 155.148)"/><path d="M0 0 17.7194 13.8526" stroke="#000000" stroke-width="1.2938" stroke-linecap="butt" stroke-linejoin="miter" stroke-miterlimit="8" stroke-opacity="1" fill="none" fill-rule="evenodd" transform="matrix(1.00111 0 0 -1 349.219 349.486)"/><path d="M387.062 194.286 404.781 236.089" stroke="#000000" stroke-width="1.2938" stroke-linecap="butt" stroke-linejoin="miter" stroke-miterlimit="8" stroke-opacity="1" fill="none" fill-rule="evenodd" transform="matrix(1.00111 0 0 1 -38.273 155.148)"/><path d="M0 0 18.3373 41.427" stroke="#000000" stroke-width="1.2938" stroke-linecap="butt" stroke-linejoin="miter" stroke-miterlimit="8" stroke-opacity="1" fill="none" fill-rule="evenodd" transform="matrix(1.00111 0 0 -1 348.787 377.06)"/><path d="M0 0 18.3373 13.7526" stroke="#000000" stroke-width="1.2938" stroke-linecap="butt" stroke-linejoin="miter" stroke-miterlimit="8" stroke-opacity="1" fill="none" fill-rule="evenodd" transform="matrix(1.00111 0 0 -1 348.787 376.987)"/><path d="M386.631 221.887 404.968 236.116" stroke="#000000" stroke-width="1.2938" stroke-linecap="butt" stroke-linejoin="miter" stroke-miterlimit="8" stroke-opacity="1" fill="none" fill-rule="evenodd" transform="matrix(1.00111 0 0 1 -38.273 155.148)"/><path d="M423.288 180.485 440.91 194.338" stroke="#000000" stroke-width="1.2938" stroke-linecap="butt" stroke-linejoin="miter" stroke-miterlimit="8" stroke-opacity="1" fill="none" fill-rule="evenodd" transform="matrix(1.00111 0 0 1 -38.273 155.148)"/><path d="M0 0 17.622 13.8218" stroke="#000000" stroke-width="1.2938" stroke-linecap="butt" stroke-linejoin="miter" stroke-miterlimit="8" stroke-opacity="1" fill="none" fill-rule="evenodd" transform="matrix(1.00111 0 0 -1 385.486 363.256)"/><path d="M0 0 17.622 41.8037" stroke="#000000" stroke-width="1.2938" stroke-linecap="butt" stroke-linejoin="miter" stroke-miterlimit="8" stroke-opacity="1" fill="none" fill-rule="evenodd" transform="matrix(1.00111 0 0 -1 385.486 391.238)"/><path d="M440.97 222.102C440.97 216.982 445.024 212.83 450.027 212.83 455.03 212.83 459.084 216.982 459.084 222.102 459.084 227.223 455.03 231.375 450.027 231.375 445.024 231.375 440.97 227.223 440.97 222.102Z" stroke="#042433" stroke-width="1.2938" stroke-linecap="butt" stroke-linejoin="miter" stroke-miterlimit="8" stroke-opacity="1" fill="#FFFFFF" fill-rule="evenodd" fill-opacity="1" transform="matrix(1.00111 0 0 1 -38.273 155.148)"/><path d="M423.288 180.485 440.91 221.912" stroke="#000000" stroke-width="1.2938" stroke-linecap="butt" stroke-linejoin="miter" stroke-miterlimit="8" stroke-opacity="1" fill="none" fill-rule="evenodd" transform="matrix(1.00111 0 0 1 -38.273 155.148)"/><path d="M423.288 208.086 440.91 221.839" stroke="#000000" stroke-width="1.2938" stroke-linecap="butt" stroke-linejoin="miter" stroke-miterlimit="8" stroke-opacity="1" fill="none" fill-rule="evenodd" transform="matrix(1.00111 0 0 1 -38.273 155.148)"/><path d="M0 0 17.622 14.2293" stroke="#000000" stroke-width="1.2938" stroke-linecap="butt" stroke-linejoin="miter" stroke-miterlimit="8" stroke-opacity="1" fill="none" fill-rule="evenodd" transform="matrix(1.00111 0 0 -1 385.486 391.264)"/><text fill="#000000" fill-opacity="1" font-family="Times New Roman,Times New Roman_MSFontService,sans-serif" font-style="normal" font-variant="normal" font-weight="700" font-stretch="normal" font-size="28" text-anchor="start" direction="ltr" writing-mode="lr-tb" unicode-bidi="normal" text-decoration="none" transform="matrix(0.431746 0 0 0.431267 320.173 414)">Deep Neural Network</text><path d="M475.687 167.116C475.687 166.759 475.976 166.469 476.334 166.469L478.922 166.469C479.28 166.469 479.569 166.759 479.569 167.116L479.569 178.76C479.569 179.117 479.28 179.407 478.922 179.407L476.334 179.407C475.976 179.407 475.687 179.117 475.687 178.76Z" fill="#FFFFFF" fill-rule="evenodd" fill-opacity="1" transform="matrix(1.00111 0 0 1 -38.273 155.148)"/><text fill="#000000" fill-opacity="1" font-family="Times New Roman,Times New Roman_MSFontService,sans-serif" font-style="normal" font-variant="normal" font-weight="700" font-stretch="normal" font-size="22" text-anchor="start" direction="ltr" writing-mode="lr-tb" unicode-bidi="normal" text-decoration="none" transform="matrix(0.431746 0 0 0.431267 442.221 321)">Input</text><path d="M271.482 176.173C271.482 172.123 274.765 168.841 278.814 168.841L334.879 168.841C338.928 168.841 342.21 172.123 342.21 176.173L342.21 205.499C342.21 209.548 338.928 212.83 334.879 212.83L278.814 212.83C274.765 212.83 271.482 209.548 271.482 205.499Z" stroke="#FFC5C1" stroke-width="1.2938" stroke-linecap="butt" stroke-linejoin="miter" stroke-miterlimit="8" stroke-opacity="1" fill="none" fill-rule="evenodd" transform="matrix(1.00111 0 0 1 -38.273 155.148)"/><text fill="#FD0B00" fill-opacity="1" font-family="Times New Roman,Times New Roman_MSFontService,sans-serif" font-style="normal" font-variant="normal" font-weight="700" font-stretch="normal" font-size="24" text-anchor="start" direction="ltr" writing-mode="lr-tb" unicode-bidi="normal" text-decoration="none" transform="matrix(0.431746 0 0 0.431267 248.999 338)">Requires </text><text fill="#FD0B00" fill-opacity="1" font-family="Times New Roman,Times New Roman_MSFontService,sans-serif" font-style="normal" font-variant="normal" font-weight="700" font-stretch="normal" font-size="24" text-anchor="start" direction="ltr" writing-mode="lr-tb" unicode-bidi="normal" text-decoration="none" transform="matrix(0.431746 0 0 0.431267 243.779 350)">Substantial </text><text fill="#FD0B00" fill-opacity="1" font-family="Times New Roman,Times New Roman_MSFontService,sans-serif" font-style="normal" font-variant="normal" font-weight="700" font-stretch="normal" font-size="24" text-anchor="start" direction="ltr" writing-mode="lr-tb" unicode-bidi="normal" text-decoration="none" transform="matrix(0.431746 0 0 0.431267 252.63 362)">Energy</text><path d="M486.357 179.441 477.951 165.169C477.628 164.602 476.787 164.602 476.464 165.169L468.037 179.441C467.713 180.008 468.123 180.701 468.791 180.701L477.197 180.701 485.602 180.701C486.271 180.701 486.68 180.008 486.357 179.441ZM476.55 168.527 477.844 168.527 477.844 175.873 476.55 175.873 476.55 168.527ZM477.197 178.812C476.593 178.812 476.123 178.35 476.123 177.763 476.123 177.175 476.593 176.713 477.197 176.713 477.801 176.713 478.271 177.175 478.271 177.763 478.271 178.35 477.801 178.812 477.197 178.812Z" fill="#FF0000" fill-rule="evenodd" fill-opacity="1" transform="matrix(1.00111 0 0 1 -38.273 155.148)"/><path d="M343.073 187.385 346.092 191.051 343.073 194.717Z" stroke="#FFC5C1" stroke-width="1.2938" stroke-linecap="butt" stroke-linejoin="miter" stroke-miterlimit="8" stroke-opacity="1" fill="#FFC5C1" fill-rule="evenodd" fill-opacity="1" transform="matrix(1.00111 0 0 1 -38.273 155.148)"/><path d="M495.957 184.367C495.957 175.435 503.198 168.194 512.129 168.194L619.084 168.194C628.015 168.194 635.256 175.435 635.256 184.367L635.256 249.056C635.256 257.988 628.015 265.229 619.084 265.229L512.129 265.229C503.198 265.229 495.957 257.988 495.957 249.056Z" fill="#F2CFEE" fill-rule="evenodd" fill-opacity="1" transform="matrix(1.00111 0 0 1 -38.273 155.148)"/><text fill="#000000" fill-opacity="1" font-family="Times New Roman,Times New Roman_MSFontService,sans-serif" font-style="normal" font-variant="normal" font-weight="700" font-stretch="normal" font-size="28" text-anchor="start" direction="ltr" writing-mode="lr-tb" unicode-bidi="normal" text-decoration="none" transform="matrix(0.431746 0 0 0.431267 492.723 414)">HD3C (Ours)</text><path d="M615.849 172.291C615.849 167.646 619.614 163.881 624.259 163.881 628.904 163.881 632.668 167.646 632.668 172.291 632.668 176.936 628.904 180.701 624.259 180.701 619.614 180.701 615.849 176.936 615.849 172.291Z" fill="#00B050" fill-rule="evenodd" fill-opacity="1" transform="matrix(1.00111 0 0 1 -38.273 155.148)"/><path d="M629.059 169.057 622.607 175.168 619.506 171.986 618.437 173.008 622.56 177.251 623.642 176.241 630.081 170.117Z" fill="#FFFFFF" fill-rule="evenodd" fill-opacity="1" transform="matrix(1.00111 0 0 1 -38.273 155.148)"/><path d="M640.216 175.813C640.216 171.724 643.532 168.41 647.62 168.41L703.539 168.41C707.627 168.41 710.943 171.724 710.943 175.813L710.943 205.427C710.943 209.515 707.627 212.83 703.539 212.83L647.62 212.83C643.532 212.83 640.216 209.515 640.216 205.427Z" stroke="#C1DEC1" stroke-width="1.2938" stroke-linecap="butt" stroke-linejoin="miter" stroke-miterlimit="8" stroke-opacity="1" fill="none" fill-rule="evenodd" transform="matrix(1.00111 0 0 1 -38.273 155.148)"/><text fill="#3B7D23" fill-opacity="1" font-family="Times New Roman,Times New Roman_MSFontService,sans-serif" font-style="normal" font-variant="normal" font-weight="700" font-stretch="normal" font-size="24" text-anchor="start" direction="ltr" writing-mode="lr-tb" unicode-bidi="normal" text-decoration="none" transform="matrix(0.431746 0 0 0.431267 618.106 338)">Requires </text><text fill="#3B7D23" fill-opacity="1" font-family="Times New Roman,Times New Roman_MSFontService,sans-serif" font-style="normal" font-variant="normal" font-weight="700" font-stretch="normal" font-size="24" text-anchor="start" direction="ltr" writing-mode="lr-tb" unicode-bidi="normal" text-decoration="none" transform="matrix(0.431746 0 0 0.431267 613.858 350)">Much Less </text><text fill="#3B7D23" fill-opacity="1" font-family="Times New Roman,Times New Roman_MSFontService,sans-serif" font-style="normal" font-variant="normal" font-weight="700" font-stretch="normal" font-size="24" text-anchor="start" direction="ltr" writing-mode="lr-tb" unicode-bidi="normal" text-decoration="none" transform="matrix(0.431746 0 0 0.431267 621.737 362)">Energy</text><path d="M514.286 182.21C514.286 180.781 515.446 179.623 516.873 179.623L551.806 179.623C553.233 179.623 554.394 180.781 554.394 182.21L554.394 192.561C554.394 193.99 553.233 195.148 551.806 195.148L516.873 195.148C515.446 195.148 514.286 193.99 514.286 192.561Z" stroke="#000000" stroke-width="1.2938" stroke-linecap="butt" stroke-linejoin="miter" stroke-miterlimit="8" stroke-opacity="1" fill="#FFFFFF" fill-rule="evenodd" fill-opacity="1" transform="matrix(1.00111 0 0 1 -38.273 155.148)"/><path d="M516.873 184.367C516.873 182.937 518.033 181.779 519.461 181.779L553.962 181.779C555.39 181.779 556.55 182.937 556.55 184.367L556.55 194.717C556.55 196.146 555.39 197.305 553.962 197.305L519.461 197.305C518.033 197.305 516.873 196.146 516.873 194.717Z" stroke="#000000" stroke-width="1.2938" stroke-linecap="butt" stroke-linejoin="miter" stroke-miterlimit="8" stroke-opacity="1" fill="#FFFFFF" fill-rule="evenodd" fill-opacity="1" transform="matrix(1.00111 0 0 1 -38.273 155.148)"/><path d="M519.03 186.451C519.03 185.062 520.155 183.935 521.544 183.935L556.623 183.935C558.012 183.935 559.137 185.062 559.137 186.451L559.137 196.514C559.137 197.903 558.012 199.03 556.623 199.03L521.544 199.03C520.155 199.03 519.03 197.903 519.03 196.514Z" stroke="#000000" stroke-width="1.2938" stroke-linecap="butt" stroke-linejoin="miter" stroke-miterlimit="8" stroke-opacity="1" fill="#FFFFFF" fill-rule="evenodd" fill-opacity="1" transform="matrix(1.00111 0 0 1 -38.273 155.148)"/><text fill="#000000" fill-opacity="1" font-family="Times New Roman,Times New Roman_MSFontService,sans-serif" font-style="normal" font-variant="normal" font-weight="700" font-stretch="normal" font-size="12" text-anchor="start" direction="ltr" writing-mode="lr-tb" unicode-bidi="normal" text-decoration="none" transform="matrix(0.431746 0 0 0.431267 492.364 348)">ID</text><text fill="#000000" fill-opacity="1" font-family="Times New Roman,Times New Roman_MSFontService,sans-serif" font-style="normal" font-variant="normal" font-weight="700" font-stretch="normal" font-size="12" text-anchor="start" direction="ltr" writing-mode="lr-tb" unicode-bidi="normal" text-decoration="none" transform="matrix(0.431746 0 0 0.431267 498.193 348)">-</text><text fill="#000000" fill-opacity="1" font-family="Times New Roman,Times New Roman_MSFontService,sans-serif" font-style="normal" font-variant="normal" font-weight="700" font-stretch="normal" font-size="12" text-anchor="start" direction="ltr" writing-mode="lr-tb" unicode-bidi="normal" text-decoration="none" transform="matrix(0.431746 0 0 0.431267 499.92 348)">HVs</text><path d="M570.782 182.21C570.782 180.781 571.942 179.623 573.369 179.623L607.871 179.623C609.298 179.623 610.458 180.781 610.458 182.21L610.458 192.561C610.458 193.99 609.298 195.148 607.871 195.148L573.369 195.148C571.942 195.148 570.782 193.99 570.782 192.561Z" stroke="#000000" stroke-width="1.2938" stroke-linecap="butt" stroke-linejoin="miter" stroke-miterlimit="8" stroke-opacity="1" fill="#FFFFFF" fill-rule="evenodd" fill-opacity="1" transform="matrix(1.00111 0 0 1 -38.273 155.148)"/><path d="M572.938 184.367C572.938 182.937 574.098 181.779 575.526 181.779L610.458 181.779C611.886 181.779 613.046 182.937 613.046 184.367L613.046 194.717C613.046 196.146 611.886 197.305 610.458 197.305L575.526 197.305C574.098 197.305 572.938 196.146 572.938 194.717Z" stroke="#000000" stroke-width="1.2938" stroke-linecap="butt" stroke-linejoin="miter" stroke-miterlimit="8" stroke-opacity="1" fill="#FFFFFF" fill-rule="evenodd" fill-opacity="1" transform="matrix(1.00111 0 0 1 -38.273 155.148)"/><path d="M575.526 186.523C575.526 185.094 576.686 183.935 578.113 183.935L612.615 183.935C614.042 183.935 615.202 185.094 615.202 186.523L615.202 196.873C615.202 198.303 614.042 199.461 612.615 199.461L578.113 199.461C576.686 199.461 575.526 198.303 575.526 196.873Z" stroke="#000000" stroke-width="1.2938" stroke-linecap="butt" stroke-linejoin="miter" stroke-miterlimit="8" stroke-opacity="1" fill="#FFFFFF" fill-rule="evenodd" fill-opacity="1" transform="matrix(1.00111 0 0 1 -38.273 155.148)"/><text fill="#000000" fill-opacity="1" font-family="Times New Roman,Times New Roman_MSFontService,sans-serif" font-style="normal" font-variant="normal" font-weight="700" font-stretch="normal" font-size="12" text-anchor="start" direction="ltr" writing-mode="lr-tb" unicode-bidi="normal" text-decoration="none" transform="matrix(0.431746 0 0 0.431267 545.715 349)">Level</text><text fill="#000000" fill-opacity="1" font-family="Times New Roman,Times New Roman_MSFontService,sans-serif" font-style="normal" font-variant="normal" font-weight="700" font-stretch="normal" font-size="12" text-anchor="start" direction="ltr" writing-mode="lr-tb" unicode-bidi="normal" text-decoration="none" transform="matrix(0.431746 0 0 0.431267 557.696 349)">-</text><text fill="#000000" fill-opacity="1" font-family="Times New Roman,Times New Roman_MSFontService,sans-serif" font-style="normal" font-variant="normal" font-weight="700" font-stretch="normal" font-size="12" text-anchor="start" direction="ltr" writing-mode="lr-tb" unicode-bidi="normal" text-decoration="none" transform="matrix(0.431746 0 0 0.431267 559.423 349)">HVs</text><path d="M544.906 206.361C544.906 204.932 546.066 203.774 547.493 203.774L583.72 203.774C585.147 203.774 586.307 204.932 586.307 206.361L586.307 216.712C586.307 218.141 585.147 219.299 583.72 219.299L547.493 219.299C546.066 219.299 544.906 218.141 544.906 216.712Z" stroke="#000000" stroke-width="1.2938" stroke-linecap="butt" stroke-linejoin="miter" stroke-miterlimit="8" stroke-opacity="1" fill="#FFFFFF" fill-rule="evenodd" fill-opacity="1" transform="matrix(1.00111 0 0 1 -38.273 155.148)"/><text fill="#000000" fill-opacity="1" font-family="Times New Roman,Times New Roman_MSFontService,sans-serif" font-style="normal" font-variant="normal" font-weight="700" font-stretch="normal" font-size="12" text-anchor="start" direction="ltr" writing-mode="lr-tb" unicode-bidi="normal" text-decoration="none" transform="matrix(0.431746 0 0 0.431267 514.979 369)">Sample</text><text fill="#000000" fill-opacity="1" font-family="Times New Roman,Times New Roman_MSFontService,sans-serif" font-style="normal" font-variant="normal" font-weight="700" font-stretch="normal" font-size="12" text-anchor="start" direction="ltr" writing-mode="lr-tb" unicode-bidi="normal" text-decoration="none" transform="matrix(0.431746 0 0 0.431267 531.386 369)">-</text><text fill="#000000" fill-opacity="1" font-family="Times New Roman,Times New Roman_MSFontService,sans-serif" font-style="normal" font-variant="normal" font-weight="700" font-stretch="normal" font-size="12" text-anchor="start" direction="ltr" writing-mode="lr-tb" unicode-bidi="normal" text-decoration="none" transform="matrix(0.431746 0 0 0.431267 533.113 369)">HV</text><path d="M638.922 194.717 635.903 190.836 638.922 186.954Z" stroke="#C1DEC2" stroke-width="1.2938" stroke-linecap="butt" stroke-linejoin="miter" stroke-miterlimit="8" stroke-opacity="1" fill="#C1DEC2" fill-rule="evenodd" fill-opacity="1" transform="matrix(1.00111 0 0 1 -38.273 155.148)"/><path d="M498.82 267.165 579.454 319.85 578.04 322.017 497.406 269.331ZM579.786 316.977 584.164 324.472 575.543 323.475Z" fill="#000000" fill-rule="nonzero" fill-opacity="1" transform="matrix(1.00111 0 0 1 -38.273 155.148)"/><path d="M0.699579-1.08835 83.2768 51.9918 81.8777 54.1684-0.699579 1.08835ZM83.5877 49.1153 88.019 56.5779 79.3902 55.6455Z" fill="#000000" fill-rule="nonzero" fill-opacity="1" transform="matrix(-1.00111 0 0 1 448.775 422.965)"/><path d="M310.512 330.854C310.512 327.479 313.248 324.744 316.622 324.744L480.358 324.744C483.735 324.744 486.469 327.479 486.469 330.854L486.469 355.292C486.469 358.666 483.735 361.402 480.358 361.402L316.622 361.402C313.248 361.402 310.512 358.666 310.512 355.292Z" fill="#DCEAF7" fill-rule="evenodd" fill-opacity="1" transform="matrix(1.00111 0 0 1 -38.273 155.148)"/><text fill="#000000" fill-opacity="1" font-family="Times New Roman,Times New Roman_MSFontService,sans-serif" font-style="normal" font-variant="normal" font-weight="700" font-stretch="normal" font-size="28" text-anchor="start" direction="ltr" writing-mode="lr-tb" unicode-bidi="normal" text-decoration="none" transform="matrix(0.431746 0 0 0.431267 306.971 503)">Heart sound normal.</text><path d="M495.957 330.782C495.957 327.447 498.661 324.744 501.995 324.744L666.307 324.744C669.641 324.744 672.345 327.447 672.345 330.782L672.345 354.933C672.345 358.267 669.641 360.97 666.307 360.97L501.995 360.97C498.661 360.97 495.957 358.267 495.957 354.933Z" fill="#FBE3D6" fill-rule="evenodd" fill-opacity="1" transform="matrix(1.00111 0 0 1 -38.273 155.148)"/><text fill="#000000" fill-opacity="1" font-family="Times New Roman,Times New Roman_MSFontService,sans-serif" font-style="normal" font-variant="normal" font-weight="700" font-stretch="normal" font-size="28" text-anchor="start" direction="ltr" writing-mode="lr-tb" unicode-bidi="normal" text-decoration="none" transform="matrix(0.431746 0 0 0.431267 484.913 495)">Heart sound abnormal, </text><text fill="#000000" fill-opacity="1" font-family="Times New Roman,Times New Roman_MSFontService,sans-serif" font-style="normal" font-variant="normal" font-weight="700" font-stretch="normal" font-size="28" text-anchor="start" direction="ltr" writing-mode="lr-tb" unicode-bidi="normal" text-decoration="none" transform="matrix(0.431746 0 0 0.431267 465.052 509)">possible cardiovascular disease.</text><path d="M497.354 321.925 495.125 318.074 495.125 317.913C495.319 312.585 491.114 308.123 485.744 307.931 480.375 307.738 475.881 311.879 475.687 317.207 475.687 317.431 475.687 317.688 475.687 317.913 475.687 320.962 477.076 323.818 479.504 325.68L479.504 333.801 489.725 333.801 489.725 329.949 491.308 329.949C493.408 329.949 495.125 328.248 495.125 326.161 495.125 326.13 495.125 326.13 495.125 326.097L495.125 324.172 496.548 324.172C497.389 324.075 498.13 323.112 497.354 321.925ZM477.141 314.703 478.922 314.703 478.922 313.419C478.564 313.163 478.499 312.649 478.758 312.296 479.017 311.943 479.534 311.879 479.892 312.135 480.246 312.392 480.31 312.906 480.052 313.259 480.022 313.323 479.957 313.387 479.892 313.419L479.892 314.703 481.186 314.703 481.186 316.95C481.54 317.207 481.604 317.72 481.346 318.074 481.087 318.426 480.569 318.491 480.216 318.234 479.858 317.977 479.793 317.464 480.052 317.111 480.086 317.046 480.151 316.982 480.216 316.95L480.216 315.666 476.852 315.666C476.947 315.345 477.011 315.024 477.141 314.703ZM486.133 320.128C485.68 320.128 485.326 319.774 485.326 319.325 485.326 319.293 485.326 319.229 485.326 319.197L484.485 318.362 483.127 319.71 483.127 322.086C483.48 322.342 483.545 322.856 483.286 323.209 483.027 323.562 482.51 323.626 482.156 323.369 481.798 323.112 481.734 322.599 481.992 322.246 482.027 322.182 482.092 322.117 482.156 322.086L482.156 321.764 479.987 321.764 478.469 319.999C478.016 320.031 477.628 319.71 477.594 319.261 477.563 318.812 477.887 318.426 478.34 318.394 478.792 318.362 479.181 318.683 479.211 319.133 479.211 319.197 479.211 319.293 479.211 319.357L480.44 320.802 482.156 320.802 482.156 319.325 483.804 317.688 482.803 316.661 482.803 310.852C482.445 310.595 482.381 310.081 482.639 309.729 482.898 309.375 483.416 309.311 483.774 309.568 484.127 309.825 484.192 310.338 483.933 310.691 483.903 310.755 483.838 310.82 483.774 310.852L483.774 311.815 486.361 311.815 486.361 314.061C486.715 314.318 486.78 314.832 486.521 315.185 486.262 315.538 485.744 315.602 485.391 315.345 485.033 315.088 484.968 314.575 485.227 314.222 485.261 314.158 485.326 314.093 485.391 314.061L485.391 312.778 483.774 312.778 483.774 316.276 486.038 318.523C486.068 318.523 486.102 318.523 486.133 318.523 486.585 318.523 486.943 318.876 486.943 319.325 486.943 319.774 486.585 320.128 486.133 320.128ZM490.079 313.644C489.626 313.644 489.272 313.291 489.272 312.842 489.272 312.81 489.272 312.81 489.272 312.778L487.978 311.622 487.978 309.279C488.302 309.375 488.625 309.504 488.949 309.632L488.949 311.205 489.919 312.072C489.984 312.072 490.014 312.072 490.079 312.072 490.532 312.072 490.885 312.424 490.885 312.874 490.885 313.323 490.532 313.644 490.079 313.644Z" fill="#000000" fill-rule="evenodd" fill-opacity="1" transform="matrix(1.00111 0 0 1 -38.273 155.148)"/><path d="M683.23 321.925 681 318.074 681 317.913C681.195 312.585 676.99 308.123 671.62 307.931 666.251 307.738 661.757 311.879 661.563 317.207 661.563 317.431 661.563 317.688 661.563 317.913 661.563 320.962 662.952 323.818 665.38 325.68L665.38 333.801 675.601 333.801 675.601 329.949 677.184 329.949C679.284 329.949 681 328.248 681 326.161 681 326.13 681 326.13 681 326.097L681 324.172 682.424 324.172C683.265 324.075 684.006 323.112 683.23 321.925ZM663.017 314.703 664.798 314.703 664.798 313.419C664.44 313.163 664.375 312.649 664.634 312.296 664.893 311.943 665.41 311.879 665.768 312.135 666.122 312.392 666.187 312.906 665.928 313.259 665.898 313.323 665.833 313.387 665.768 313.419L665.768 314.703 667.062 314.703 667.062 316.95C667.416 317.207 667.48 317.72 667.222 318.074 666.963 318.426 666.445 318.491 666.092 318.234 665.734 317.977 665.669 317.464 665.928 317.111 665.962 317.046 666.027 316.982 666.092 316.95L666.092 315.666 662.728 315.666C662.823 315.345 662.887 315.024 663.017 314.703ZM672.009 320.128C671.556 320.128 671.202 319.774 671.202 319.325 671.202 319.293 671.202 319.229 671.202 319.197L670.361 318.362 669.003 319.71 669.003 322.086C669.356 322.342 669.421 322.856 669.162 323.209 668.904 323.562 668.386 323.626 668.032 323.369 667.674 323.112 667.61 322.599 667.868 322.246 667.903 322.182 667.968 322.117 668.032 322.086L668.032 321.764 665.863 321.764 664.345 319.999C663.892 320.031 663.504 319.71 663.47 319.261 663.439 318.812 663.763 318.426 664.216 318.394 664.668 318.362 665.057 318.683 665.087 319.133 665.087 319.197 665.087 319.293 665.087 319.357L666.316 320.802 668.032 320.802 668.032 319.325 669.68 317.688 668.679 316.661 668.679 310.852C668.321 310.595 668.257 310.081 668.515 309.729 668.774 309.375 669.292 309.311 669.65 309.568 670.003 309.825 670.068 310.338 669.809 310.691 669.779 310.755 669.714 310.82 669.65 310.852L669.65 311.815 672.237 311.815 672.237 314.061C672.591 314.318 672.656 314.832 672.397 315.185 672.138 315.538 671.62 315.602 671.267 315.345 670.909 315.088 670.844 314.575 671.103 314.222 671.137 314.158 671.202 314.093 671.267 314.061L671.267 312.778 669.65 312.778 669.65 316.276 671.914 318.523C671.944 318.523 671.978 318.523 672.009 318.523 672.461 318.523 672.819 318.876 672.819 319.325 672.819 319.774 672.461 320.128 672.009 320.128ZM675.955 313.644C675.502 313.644 675.148 313.291 675.148 312.842 675.148 312.81 675.148 312.81 675.148 312.778L673.854 311.622 673.854 309.279C674.178 309.375 674.501 309.504 674.825 309.632L674.825 311.205 675.795 312.072C675.86 312.072 675.89 312.072 675.955 312.072 676.408 312.072 676.761 312.424 676.761 312.874 676.761 313.323 676.408 313.644 675.955 313.644Z" fill="#000000" fill-rule="evenodd" fill-opacity="1" transform="matrix(1.00111 0 0 1 -38.273 155.148)"/><path d="M792.237 96.6038 792.237 308.787M809.057 96.6038 809.057 308.787M821.132 96.6038 821.132 308.787M830.189 96.6038 830.189 308.787M837.52 96.6038 837.52 308.787M843.989 96.6038 843.989 308.787M849.596 96.6038 849.596 308.787M854.34 96.6038 854.34 308.787M887.547 96.6038 887.547 308.787M904.367 96.6038 904.367 308.787M916.442 96.6038 916.442 308.787M925.499 96.6038 925.499 308.787M933.261 96.6038 933.261 308.787M939.299 96.6038 939.299 308.787M944.906 96.6038 944.906 308.787M950.081 96.6038 950.081 308.787M982.857 96.6038 982.857 308.787M999.677 96.6038 999.677 308.787M1011.75 96.6038 1011.75 308.787M1020.81 96.6038 1020.81 308.787M1028.57 96.6038 1028.57 308.787M1035.04 96.6038 1035.04 308.787M1040.22 96.6038 1040.22 308.787M1045.39 96.6038 1045.39 308.787" stroke="#F2F2F2" stroke-width="0.6469" stroke-linecap="butt" stroke-linejoin="round" stroke-miterlimit="10" stroke-opacity="1" fill="none" fill-rule="nonzero" transform="matrix(1.00111 0 0 1 -38.273 155.148)"/><path d="M763.342 96.6038 763.342 308.787M859.084 96.6038 859.084 308.787M954.394 96.6038 954.394 308.787" stroke="#D9D9D9" stroke-width="0.6469" stroke-linecap="butt" stroke-linejoin="round" stroke-miterlimit="10" stroke-opacity="1" fill="none" fill-rule="nonzero" transform="matrix(1.00111 0 0 1 -38.273 155.148)"/><path d="M0 0 6.79159e-05 212.183" stroke="#BFBFBF" stroke-width="0.6469" stroke-linecap="butt" stroke-linejoin="round" stroke-miterlimit="10" stroke-opacity="1" fill="none" fill-rule="evenodd" transform="matrix(1.00111 0 0 -1 1012.6 463.935)"/><path d="M763.342 308.787 1049.7 308.787" stroke="#BFBFBF" stroke-width="0.6469" stroke-linecap="butt" stroke-linejoin="round" stroke-miterlimit="10" stroke-opacity="1" fill="none" fill-rule="evenodd" transform="matrix(1.00111 0 0 1 -38.273 155.148)"/><path d="M778.156 160.853C778.156 162.044 777.19 163.009 776 163.009 774.805 163.009 773.844 162.044 773.844 160.853 773.844 159.662 774.805 158.697 776 158.697 777.19 158.697 778.156 159.662 778.156 160.853Z" stroke="#156082" stroke-width="0.6469" stroke-linecap="butt" stroke-linejoin="round" stroke-miterlimit="10" stroke-opacity="1" fill="#156082" fill-rule="nonzero" fill-opacity="1" transform="matrix(1.00111 0 0 1 -38.273 155.148)"/><path d="M1020.1 128.508C1020.1 129.699 1019.13 130.664 1017.94 130.664 1016.75 130.664 1015.78 129.699 1015.78 128.508 1015.78 127.317 1016.75 126.352 1017.94 126.352 1019.13 126.352 1020.1 127.317 1020.1 128.508Z" stroke="#156082" stroke-width="0.6469" stroke-linecap="butt" stroke-linejoin="round" stroke-miterlimit="10" stroke-opacity="1" fill="#156082" fill-rule="nonzero" fill-opacity="1" transform="matrix(1.00111 0 0 1 -38.273 155.148)"/><path d="M948.938 174.222C948.938 175.413 947.972 176.379 946.782 176.379 945.587 176.379 944.625 175.413 944.625 174.222 944.625 173.032 945.587 172.066 946.782 172.066 947.972 172.066 948.938 173.032 948.938 174.222Z" stroke="#156082" stroke-width="0.6469" stroke-linecap="butt" stroke-linejoin="round" stroke-miterlimit="10" stroke-opacity="1" fill="#156082" fill-rule="nonzero" fill-opacity="1" transform="matrix(1.00111 0 0 1 -38.273 155.148)"/><path d="M907.536 157.834C907.536 159.025 906.57 159.991 905.38 159.991 904.185 159.991 903.224 159.025 903.224 157.834 903.224 156.643 904.185 155.678 905.38 155.678 906.57 155.678 907.536 156.643 907.536 157.834Z" stroke="#156082" stroke-width="0.6469" stroke-linecap="butt" stroke-linejoin="round" stroke-miterlimit="10" stroke-opacity="1" fill="#156082" fill-rule="nonzero" fill-opacity="1" transform="matrix(1.00111 0 0 1 -38.273 155.148)"/><path d="M866.997 188.023C866.997 189.214 866.031 190.179 864.841 190.179 863.646 190.179 862.685 189.214 862.685 188.023 862.685 186.832 863.646 185.867 864.841 185.867 866.031 185.867 866.997 186.832 866.997 188.023Z" stroke="#156082" stroke-width="0.6469" stroke-linecap="butt" stroke-linejoin="round" stroke-miterlimit="10" stroke-opacity="1" fill="#156082" fill-rule="nonzero" fill-opacity="1" transform="matrix(1.00111 0 0 1 -38.273 155.148)"/><path d="M876.485 147.053C876.485 148.244 875.519 149.209 874.329 149.209 873.134 149.209 872.172 148.244 872.172 147.053 872.172 145.862 873.134 144.896 874.329 144.896 875.519 144.896 876.485 145.862 876.485 147.053Z" stroke="#156082" stroke-width="0.6469" stroke-linecap="butt" stroke-linejoin="round" stroke-miterlimit="10" stroke-opacity="1" fill="#156082" fill-rule="nonzero" fill-opacity="1" transform="matrix(1.00111 0 0 1 -38.273 155.148)"/><path d="M977.402 195.786C977.402 196.977 976.436 197.942 975.245 197.942 974.051 197.942 973.089 196.977 973.089 195.786 973.089 194.595 974.051 193.629 975.245 193.629 976.436 193.629 977.402 194.595 977.402 195.786Z" stroke="#156082" stroke-width="0.6469" stroke-linecap="butt" stroke-linejoin="round" stroke-miterlimit="10" stroke-opacity="1" fill="#156082" fill-rule="nonzero" fill-opacity="1" transform="matrix(1.00111 0 0 1 -38.273 155.148)"/><text fill="#000000" fill-opacity="1" font-family="Times New Roman,Times New Roman_MSFontService,sans-serif" font-style="normal" font-variant="normal" font-weight="700" font-stretch="normal" font-size="24" text-anchor="start" direction="ltr" writing-mode="lr-tb" unicode-bidi="normal" text-decoration="none" transform="matrix(0.431746 0 0 0.431267 1021.34 467)">84%</text><text fill="#000000" fill-opacity="1" font-family="Times New Roman,Times New Roman_MSFontService,sans-serif" font-style="normal" font-variant="normal" font-weight="700" font-stretch="normal" font-size="24" text-anchor="start" direction="ltr" writing-mode="lr-tb" unicode-bidi="normal" text-decoration="none" transform="matrix(0.431746 0 0 0.431267 1021.34 432)">85%</text><text fill="#000000" fill-opacity="1" font-family="Times New Roman,Times New Roman_MSFontService,sans-serif" font-style="normal" font-variant="normal" font-weight="700" font-stretch="normal" font-size="24" text-anchor="start" direction="ltr" writing-mode="lr-tb" unicode-bidi="normal" text-decoration="none" transform="matrix(0.431746 0 0 0.431267 1021.34 397)">86%</text><text fill="#000000" fill-opacity="1" font-family="Times New Roman,Times New Roman_MSFontService,sans-serif" font-style="normal" font-variant="normal" font-weight="700" font-stretch="normal" font-size="24" text-anchor="start" direction="ltr" writing-mode="lr-tb" unicode-bidi="normal" text-decoration="none" transform="matrix(0.431746 0 0 0.431267 1021.34 361)">87%</text><text fill="#000000" fill-opacity="1" font-family="Times New Roman,Times New Roman_MSFontService,sans-serif" font-style="normal" font-variant="normal" font-weight="700" font-stretch="normal" font-size="24" text-anchor="start" direction="ltr" writing-mode="lr-tb" unicode-bidi="normal" text-decoration="none" transform="matrix(0.431746 0 0 0.431267 1021.34 326)">88%</text><text fill="#000000" fill-opacity="1" font-family="Times New Roman,Times New Roman_MSFontService,sans-serif" font-style="normal" font-variant="normal" font-weight="700" font-stretch="normal" font-size="24" text-anchor="start" direction="ltr" writing-mode="lr-tb" unicode-bidi="normal" text-decoration="none" transform="matrix(0.431746 0 0 0.431267 1021.34 291)">89%</text><text fill="#000000" fill-opacity="1" font-family="Times New Roman,Times New Roman_MSFontService,sans-serif" font-style="normal" font-variant="normal" font-weight="700" font-stretch="normal" font-size="24" text-anchor="start" direction="ltr" writing-mode="lr-tb" unicode-bidi="normal" text-decoration="none" transform="matrix(0.431746 0 0 0.431267 1021.34 255)">90%</text><text fill="#000000" fill-opacity="1" font-family="Times New Roman,Times New Roman_MSFontService,sans-serif" font-style="normal" font-variant="normal" font-weight="700" font-stretch="normal" font-size="28" text-anchor="start" direction="ltr" writing-mode="lr-tb" unicode-bidi="normal" text-decoration="none" transform="matrix(0.431746 0 0 0.431267 723.046 481)">2</text><text fill="#000000" fill-opacity="1" font-family="Times New Roman,Times New Roman_MSFontService,sans-serif" font-style="normal" font-variant="normal" font-weight="700" font-stretch="normal" font-size="28" text-anchor="start" direction="ltr" writing-mode="lr-tb" unicode-bidi="normal" text-decoration="none" transform="matrix(0.431746 0 0 0.431267 815.509 481)">20</text><text fill="#000000" fill-opacity="1" font-family="Times New Roman,Times New Roman_MSFontService,sans-serif" font-style="normal" font-variant="normal" font-weight="700" font-stretch="normal" font-size="28" text-anchor="start" direction="ltr" writing-mode="lr-tb" unicode-bidi="normal" text-decoration="none" transform="matrix(0.431746 0 0 0.431267 907.976 481)">200</text><text fill="#000000" fill-opacity="1" font-family="Times New Roman,Times New Roman_MSFontService,sans-serif" font-style="normal" font-variant="normal" font-weight="700" font-stretch="normal" font-size="28" text-anchor="start" direction="ltr" writing-mode="lr-tb" unicode-bidi="normal" text-decoration="none" transform="matrix(0.431746 0 0 0.431267 998.928 481)">2,000</text><path d="M770.674 161.725C770.674 159.105 772.796 156.981 775.418 156.981 778.04 156.981 780.162 159.105 780.162 161.725 780.162 164.345 778.04 166.469 775.418 166.469 772.796 166.469 770.674 164.345 770.674 161.725Z" fill="#E97132" fill-rule="evenodd" fill-opacity="1" transform="matrix(1.00111 0 0 1 -38.273 155.148)"/><path d="M860.809 189.757C860.809 187.137 862.93 185.013 865.553 185.013 868.175 185.013 870.297 187.137 870.297 189.757 870.297 192.377 868.175 194.501 865.553 194.501 862.93 194.501 860.809 192.377 860.809 189.757Z" fill="#146082" fill-rule="evenodd" fill-opacity="1" transform="matrix(1.00111 0 0 1 -38.273 155.148)"/><text fill="#E97132" fill-opacity="1" font-family="Times New Roman,Times New Roman_MSFontService,sans-serif" font-style="normal" font-variant="normal" font-weight="700" font-stretch="normal" font-size="28" text-anchor="start" direction="ltr" writing-mode="lr-tb" unicode-bidi="normal" text-decoration="none" transform="matrix(0.431746 0 0 0.431267 702.612 303)">HD3C (Ours)</text><text fill="#146082" fill-opacity="1" font-family="Times New Roman,Times New Roman_MSFontService,sans-serif" font-style="normal" font-variant="normal" font-weight="700" font-stretch="normal" font-size="28" text-anchor="start" direction="ltr" writing-mode="lr-tb" unicode-bidi="normal" text-decoration="none" transform="matrix(0.431746 0 0 0.431267 799.789 363)">Light CNN</text><path d="M869.434 147.925C869.434 145.305 871.655 143.181 874.394 143.181 877.132 143.181 879.353 145.305 879.353 147.925 879.353 150.544 877.132 152.668 874.394 152.668 871.655 152.668 869.434 150.544 869.434 147.925Z" fill="#A02B93" fill-rule="evenodd" fill-opacity="1" transform="matrix(1.00111 0 0 1 -38.273 155.148)"/><text fill="#A02B93" fill-opacity="1" font-family="Times New Roman,Times New Roman_MSFontService,sans-serif" font-style="normal" font-variant="normal" font-weight="700" font-stretch="normal" font-size="28" text-anchor="start" direction="ltr" writing-mode="lr-tb" unicode-bidi="normal" text-decoration="none" transform="matrix(0.431746 0 0 0.431267 808.411 264)">Knowledge </text><text fill="#A02B93" fill-opacity="1" font-family="Times New Roman,Times New Roman_MSFontService,sans-serif" font-style="normal" font-variant="normal" font-weight="700" font-stretch="normal" font-size="28" text-anchor="start" direction="ltr" writing-mode="lr-tb" unicode-bidi="normal" text-decoration="none" transform="matrix(0.431746 0 0 0.431267 808.787 278)">Distillation </text><text fill="#A02B93" fill-opacity="1" font-family="Times New Roman,Times New Roman_MSFontService,sans-serif" font-style="normal" font-variant="normal" font-weight="700" font-stretch="normal" font-size="28" text-anchor="start" direction="ltr" writing-mode="lr-tb" unicode-bidi="normal" text-decoration="none" transform="matrix(0.431746 0 0 0.431267 824.17 293)">CNN</text><path d="M902.21 158.059C902.21 155.32 904.431 153.1 907.17 153.1 909.908 153.1 912.129 155.32 912.129 158.059 912.129 160.798 909.908 163.019 907.17 163.019 904.431 163.019 902.21 160.798 902.21 158.059Z" fill="#4EA72E" fill-rule="evenodd" fill-opacity="1" transform="matrix(1.00111 0 0 1 -38.273 155.148)"/><text fill="#4EA72E" fill-opacity="1" font-family="Times New Roman,Times New Roman_MSFontService,sans-serif" font-style="normal" font-variant="normal" font-weight="700" font-stretch="normal" font-size="28" text-anchor="start" direction="ltr" writing-mode="lr-tb" unicode-bidi="normal" text-decoration="none" transform="matrix(0.431746 0 0 0.431267 849.971 330)">VGG16</text><path d="M943.612 174.663C943.612 172.043 945.833 169.919 948.571 169.919 951.31 169.919 953.531 172.043 953.531 174.663 953.531 177.283 951.31 179.407 948.571 179.407 945.833 179.407 943.612 177.283 943.612 174.663Z" fill="#0E9ED5" fill-rule="evenodd" fill-opacity="1" transform="matrix(1.00111 0 0 1 -38.273 155.148)"/><text fill="#0E9ED5" fill-opacity="1" font-family="Times New Roman,Times New Roman_MSFontService,sans-serif" font-style="normal" font-variant="normal" font-weight="700" font-stretch="normal" font-size="28" text-anchor="start" direction="ltr" writing-mode="lr-tb" unicode-bidi="normal" text-decoration="none" transform="matrix(0.431746 0 0 0.431267 882.352 345)">ViT + CNN</text><path d="M1014.77 129.164C1014.77 126.425 1016.89 124.205 1019.51 124.205 1022.14 124.205 1024.26 126.425 1024.26 129.164 1024.26 131.903 1022.14 134.124 1019.51 134.124 1016.89 134.124 1014.77 131.903 1014.77 129.164Z" fill="#196B24" fill-rule="evenodd" fill-opacity="1" transform="matrix(1.00111 0 0 1 -38.273 155.148)"/><text fill="#196B24" fill-opacity="1" font-family="Times New Roman,Times New Roman_MSFontService,sans-serif" font-style="normal" font-variant="normal" font-weight="700" font-stretch="normal" font-size="28" text-anchor="start" direction="ltr" writing-mode="lr-tb" unicode-bidi="normal" text-decoration="none" transform="matrix(0.431746 0 0 0.431267 921.632 275)">Bayesian ResNet</text><path d="M972.075 196.226C972.075 193.606 974.197 191.482 976.819 191.482 979.442 191.482 981.563 193.606 981.563 196.226 981.563 198.846 979.442 200.97 976.819 200.97 974.197 200.97 972.075 198.846 972.075 196.226Z" fill="#D86ECC" fill-rule="evenodd" fill-opacity="1" transform="matrix(1.00111 0 0 1 -38.273 155.148)"/><text fill="#D86ECC" fill-opacity="1" font-family="Times New Roman,Times New Roman_MSFontService,sans-serif" font-style="normal" font-variant="normal" font-weight="700" font-stretch="normal" font-size="28" text-anchor="start" direction="ltr" writing-mode="lr-tb" unicode-bidi="normal" text-decoration="none" transform="matrix(0.431746 0 0 0.431267 900.572 370)">Pruned ResNet</text><path d="M247.243 41.4007 233.05 31.0504 238.225 31.0504C224.427 12.7713 176.225-7.82004e-05 121.034-7.82004e-05L131.384 0C186.575 0 234.777 12.7713 248.575 31.0505L253.75 31.0504Z" fill="#C00000" fill-rule="evenodd" fill-opacity="1" transform="matrix(-0.99309 0.126192 0.126332 0.991988 978.234 214.292)"/><path d="M126.209 0.0377489C61.4359 0.985954 10.3503 19.2241 10.3503 41.4006L0 41.4007C-3.27951e-14 18.5357 54.1888-8.19879e-15 121.034-1.63976e-14 122.759-8.19879e-15 124.485 0.0126233 126.209 0.0378612Z" fill="#9A0000" fill-rule="evenodd" fill-opacity="1" transform="matrix(-0.99309 0.126192 0.126332 0.991988 978.234 214.292)"/><text fill="#C00000" fill-opacity="1" font-family="Times New Roman,Times New Roman_MSFontService,sans-serif" font-style="normal" font-variant="normal" font-weight="700" font-stretch="normal" font-size="28" text-anchor="start" direction="ltr" writing-mode="lr-tb" unicode-bidi="normal" text-decoration="none" transform="matrix(0.431746 0 0 0.431267 827.14 221)">350x Energy </text><text fill="#C00000" fill-opacity="1" font-family="Times New Roman,Times New Roman_MSFontService,sans-serif" font-style="normal" font-variant="normal" font-weight="700" font-stretch="normal" font-size="28" text-anchor="start" direction="ltr" writing-mode="lr-tb" unicode-bidi="normal" text-decoration="none" transform="matrix(0.431746 0 0 0.431267 895.032 221)">E</text><text fill="#C00000" fill-opacity="1" font-family="Times New Roman,Times New Roman_MSFontService,sans-serif" font-style="normal" font-variant="normal" font-weight="700" font-stretch="normal" font-size="28" text-anchor="start" direction="ltr" writing-mode="lr-tb" unicode-bidi="normal" text-decoration="none" transform="matrix(0.431746 0 0 0.431267 903.128 221)">fficient</text><text fill="#000000" fill-opacity="1" font-family="Times New Roman,Times New Roman_MSFontService,sans-serif" font-style="normal" font-variant="normal" font-weight="700" font-stretch="normal" font-size="28" text-anchor="start" direction="ltr" writing-mode="lr-tb" unicode-bidi="normal" text-decoration="none" transform="matrix(0.431746 0 0 0.431267 746.689 503)">Energy Consumption per 100 Classifications (J)</text><text fill="#000000" fill-opacity="1" font-family="Times New Roman,Times New Roman_MSFontService,sans-serif" font-style="normal" font-variant="normal" font-weight="700" font-stretch="normal" font-size="28" text-anchor="start" direction="ltr" writing-mode="lr-tb" unicode-bidi="normal" text-decoration="none" transform="matrix(0.431746 0 0 0.431267 994.77 219)">Average </text><text fill="#000000" fill-opacity="1" font-family="Times New Roman,Times New Roman_MSFontService,sans-serif" font-style="normal" font-variant="normal" font-weight="700" font-stretch="normal" font-size="28" text-anchor="start" direction="ltr" writing-mode="lr-tb" unicode-bidi="normal" text-decoration="none" transform="matrix(0.431746 0 0 0.431267 991.299 233)">Accuracy</text><path d="M717.412 45.9299 717.412 357.098" stroke="#000000" stroke-width="1.2938" stroke-linecap="butt" stroke-linejoin="miter" stroke-miterlimit="8" stroke-dasharray="5.1752 3.8814" stroke-opacity="1" fill="none" fill-rule="evenodd" transform="matrix(1.00111 0 0 1 -38.273 155.148)"/><path d="M640.216 229.218C640.216 225.169 643.498 221.887 647.547 221.887L703.612 221.887C707.661 221.887 710.943 225.169 710.943 229.218L710.943 258.544C710.943 262.594 707.661 265.876 703.612 265.876L647.547 265.876C643.498 265.876 640.216 262.594 640.216 258.544Z" stroke="#C1DEC1" stroke-width="1.2938" stroke-linecap="butt" stroke-linejoin="miter" stroke-miterlimit="8" stroke-opacity="1" fill="none" fill-rule="evenodd" transform="matrix(1.00111 0 0 1 -38.273 155.148)"/><text fill="#3B7D23" fill-opacity="1" font-family="Times New Roman,Times New Roman_MSFontService,sans-serif" font-style="normal" font-variant="normal" font-weight="700" font-stretch="normal" font-size="24" text-anchor="start" direction="ltr" writing-mode="lr-tb" unicode-bidi="normal" text-decoration="none" transform="matrix(0.431746 0 0 0.431267 617.096 391)">Performs </text><text fill="#3B7D23" fill-opacity="1" font-family="Times New Roman,Times New Roman_MSFontService,sans-serif" font-style="normal" font-variant="normal" font-weight="700" font-stretch="normal" font-size="24" text-anchor="start" direction="ltr" writing-mode="lr-tb" unicode-bidi="normal" text-decoration="none" transform="matrix(0.431746 0 0 0.431267 615.857 403)">on Simple </text><text fill="#3B7D23" fill-opacity="1" font-family="Times New Roman,Times New Roman_MSFontService,sans-serif" font-style="normal" font-variant="normal" font-weight="700" font-stretch="normal" font-size="24" text-anchor="start" direction="ltr" writing-mode="lr-tb" unicode-bidi="normal" text-decoration="none" transform="matrix(0.431746 0 0 0.431267 615.192 415)">Hardware</text><path d="M638.922 247.763 635.903 243.881 638.922 240Z" stroke="#C1DEC2" stroke-width="1.2938" stroke-linecap="butt" stroke-linejoin="miter" stroke-miterlimit="8" stroke-opacity="1" fill="#C1DEC2" fill-rule="evenodd" fill-opacity="1" transform="matrix(1.00111 0 0 1 -38.273 155.148)"/><path d="M272.345 228.787C272.345 224.738 275.627 221.456 279.677 221.456L335.741 221.456C339.79 221.456 343.073 224.738 343.073 228.787L343.073 258.113C343.073 262.162 339.79 265.445 335.741 265.445L279.677 265.445C275.627 265.445 272.345 262.162 272.345 258.113Z" stroke="#FFC5C1" stroke-width="1.2938" stroke-linecap="butt" stroke-linejoin="miter" stroke-miterlimit="8" stroke-opacity="1" fill="none" fill-rule="evenodd" transform="matrix(1.00111 0 0 1 -38.273 155.148)"/><text fill="#FD0B00" fill-opacity="1" font-family="Times New Roman,Times New Roman_MSFontService,sans-serif" font-style="normal" font-variant="normal" font-weight="700" font-stretch="normal" font-size="24" text-anchor="start" direction="ltr" writing-mode="lr-tb" unicode-bidi="normal" text-decoration="none" transform="matrix(0.431746 0 0 0.431267 249.807 390)">Requires </text><text fill="#FD0B00" fill-opacity="1" font-family="Times New Roman,Times New Roman_MSFontService,sans-serif" font-style="normal" font-variant="normal" font-weight="700" font-stretch="normal" font-size="24" text-anchor="start" direction="ltr" writing-mode="lr-tb" unicode-bidi="normal" text-decoration="none" transform="matrix(0.431746 0 0 0.431267 247.45 402)">Advanced </text><text fill="#FD0B00" fill-opacity="1" font-family="Times New Roman,Times New Roman_MSFontService,sans-serif" font-style="normal" font-variant="normal" font-weight="700" font-stretch="normal" font-size="24" text-anchor="start" direction="ltr" writing-mode="lr-tb" unicode-bidi="normal" text-decoration="none" transform="matrix(0.431746 0 0 0.431267 258.619 414)">GPU</text><path d="M343.935 240 346.954 243.881 343.935 247.763Z" stroke="#FFC5C1" stroke-width="1.2938" stroke-linecap="butt" stroke-linejoin="miter" stroke-miterlimit="8" stroke-opacity="1" fill="#FFC5C1" fill-rule="evenodd" fill-opacity="1" transform="matrix(1.00111 0 0 1 -38.273 155.148)"/><text fill="#000000" fill-opacity="1" font-family="Times New Roman,Times New Roman_MSFontService,sans-serif" font-style="normal" font-variant="normal" font-weight="700" font-stretch="normal" font-size="22" text-anchor="start" direction="ltr" writing-mode="lr-tb" unicode-bidi="normal" text-decoration="none" transform="matrix(0.431746 0 0 0.431267 439.45 440)">Classify</text><path d="M528.733 227.709C528.733 225.923 528.975 224.474 529.272 224.474L565.283 224.474C565.581 224.474 565.822 223.026 565.822 221.24 565.822 223.026 566.064 224.474 566.361 224.474L602.372 224.474C602.669 224.474 602.911 225.923 602.911 227.709" stroke="#000000" stroke-width="0.862534" stroke-linecap="butt" stroke-linejoin="miter" stroke-miterlimit="8" stroke-opacity="1" fill="none" fill-rule="evenodd" transform="matrix(1.00111 0 0 1 -38.273 155.148)"/><path d="M507.385 231.806C507.385 230.377 508.546 229.218 509.973 229.218L548.787 229.218C550.215 229.218 551.375 230.377 551.375 231.806L551.375 242.156C551.375 243.586 550.215 244.744 548.787 244.744L509.973 244.744C508.546 244.744 507.385 243.586 507.385 242.156Z" stroke="#000000" stroke-width="1.2938" stroke-linecap="butt" stroke-linejoin="miter" stroke-miterlimit="8" stroke-opacity="1" fill="#FFFFFF" fill-rule="evenodd" fill-opacity="1" transform="matrix(1.00111 0 0 1 -38.273 155.148)"/><text fill="#000000" fill-opacity="1" font-family="Times New Roman,Times New Roman_MSFontService,sans-serif" font-style="normal" font-variant="normal" font-weight="700" font-stretch="normal" font-size="12" text-anchor="start" direction="ltr" writing-mode="lr-tb" unicode-bidi="normal" text-decoration="none" transform="matrix(0.431746 0 0 0.431267 477.849 394)">Cluster</text><text fill="#000000" fill-opacity="1" font-family="Times New Roman,Times New Roman_MSFontService,sans-serif" font-style="normal" font-variant="normal" font-weight="700" font-stretch="normal" font-size="12" text-anchor="start" direction="ltr" writing-mode="lr-tb" unicode-bidi="normal" text-decoration="none" transform="matrix(0.431746 0 0 0.431267 494.255 394)">-</text><text fill="#000000" fill-opacity="1" font-family="Times New Roman,Times New Roman_MSFontService,sans-serif" font-style="normal" font-variant="normal" font-weight="700" font-stretch="normal" font-size="12" text-anchor="start" direction="ltr" writing-mode="lr-tb" unicode-bidi="normal" text-decoration="none" transform="matrix(0.431746 0 0 0.431267 495.982 394)">HV</text><text fill="#000000" fill-opacity="1" font-family="Times New Roman,Times New Roman_MSFontService,sans-serif" font-style="normal" font-variant="normal" font-weight="700" font-stretch="normal" font-size="8" text-anchor="start" direction="ltr" writing-mode="lr-tb" unicode-bidi="normal" text-decoration="none" transform="matrix(0.431746 0 0 0.431267 503.754 394)">1</text><path d="M580.27 231.806C580.27 230.377 581.43 229.218 582.857 229.218L621.671 229.218C623.099 229.218 624.259 230.377 624.259 231.806L624.259 242.156C624.259 243.586 623.099 244.744 621.671 244.744L582.857 244.744C581.43 244.744 580.27 243.586 580.27 242.156Z" stroke="#000000" stroke-width="1.2938" stroke-linecap="butt" stroke-linejoin="miter" stroke-miterlimit="8" stroke-opacity="1" fill="#FFFFFF" fill-rule="evenodd" fill-opacity="1" transform="matrix(1.00111 0 0 1 -38.273 155.148)"/><text fill="#000000" fill-opacity="1" font-family="Times New Roman,Times New Roman_MSFontService,sans-serif" font-style="normal" font-variant="normal" font-weight="700" font-stretch="normal" font-size="12" text-anchor="start" direction="ltr" writing-mode="lr-tb" unicode-bidi="normal" text-decoration="none" transform="matrix(0.431746 0 0 0.431267 550.184 394)">Cluster</text><text fill="#000000" fill-opacity="1" font-family="Times New Roman,Times New Roman_MSFontService,sans-serif" font-style="normal" font-variant="normal" font-weight="700" font-stretch="normal" font-size="12" text-anchor="start" direction="ltr" writing-mode="lr-tb" unicode-bidi="normal" text-decoration="none" transform="matrix(0.431746 0 0 0.431267 566.59 394)">-</text><text fill="#000000" fill-opacity="1" font-family="Times New Roman,Times New Roman_MSFontService,sans-serif" font-style="normal" font-variant="normal" font-weight="700" font-stretch="normal" font-size="12" text-anchor="start" direction="ltr" writing-mode="lr-tb" unicode-bidi="normal" text-decoration="none" transform="matrix(0.431746 0 0 0.431267 568.317 394)">HV</text><text fill="#000000" fill-opacity="1" font-family="Times New Roman,Times New Roman_MSFontService,sans-serif" font-style="italic" font-variant="normal" font-weight="700" font-stretch="normal" font-size="8" text-anchor="start" direction="ltr" writing-mode="lr-tb" unicode-bidi="normal" text-decoration="none" transform="matrix(0.431746 0 0 0.431267 576.089 394)">K</text><text fill="#000000" fill-opacity="1" font-family="Times New Roman,Times New Roman_MSFontService,sans-serif" font-style="normal" font-variant="normal" font-weight="700" font-stretch="normal" font-size="18" text-anchor="start" direction="ltr" writing-mode="lr-tb" unicode-bidi="normal" text-decoration="none" transform="matrix(0.431746 0 0 0.431267 523.916 395)"></text><text fill="#000000" fill-opacity="1" font-family="Times New Roman,Times New Roman_MSFontService,sans-serif" font-style="normal" font-variant="normal" font-weight="700" font-stretch="normal" font-size="12" text-anchor="start" direction="ltr" writing-mode="lr-tb" unicode-bidi="normal" text-decoration="none" transform="matrix(0.431746 0 0 0.431267 516.633 388)">argmin </text><text fill="#000000" fill-opacity="1" font-family="Times New Roman,Times New Roman_MSFontService,sans-serif" font-style="italic" font-variant="normal" font-weight="700" font-stretch="normal" font-size="12" text-anchor="start" direction="ltr" writing-mode="lr-tb" unicode-bidi="normal" text-decoration="none" transform="matrix(0.431746 0 0 0.431267 534.011 388)">d</text><text fill="#000000" fill-opacity="1" font-family="Times New Roman,Times New Roman_MSFontService,sans-serif" font-style="italic" font-variant="normal" font-weight="700" font-stretch="normal" font-size="8" text-anchor="start" direction="ltr" writing-mode="lr-tb" unicode-bidi="normal" text-decoration="none" transform="matrix(0.431746 0 0 0.431267 536.601 388)">H</text><path d="M538.652 198.814 565.499 203.555" stroke="#000000" stroke-width="0.862534" stroke-linecap="butt" stroke-linejoin="miter" stroke-miterlimit="8" stroke-opacity="1" fill="none" fill-rule="evenodd" transform="matrix(1.00111 0 0 1 -38.273 155.148)"/><path d="M0 0 29.5175 4.61939" stroke="#000000" stroke-width="0.862534" stroke-linecap="butt" stroke-linejoin="miter" stroke-miterlimit="8" stroke-opacity="1" fill="none" fill-rule="evenodd" transform="matrix(-1.00111 0 0 1 557.295 354.394)"/></g></g></svg>